<svg width="55" height="42" viewBox="0 0 55 42" fill="none" xmlns="http://www.w3.org/2000/svg">
<path d="M44.0815 18.75L43.8003 17.4375C43.6128 18 43.2378 18.9375 43.3315 18.8438C43.3315 18.8438 42.1128 22.125 41.8315 22.9688H44.9253C44.7378 22.2188 44.0815 18.75 44.0815 18.75ZM54.019 4.5C54.019 2.0625 51.9565 0 49.519 0H4.51904C1.98779 0 0.019043 2.0625 0.019043 4.5V37.5C0.019043 40.0312 1.98779 42 4.51904 42H49.519C51.9565 42 54.019 40.0312 54.019 37.5V4.5ZM14.269 28.125H10.3315L6.95654 15.4688C5.73779 14.7188 4.42529 14.25 3.01904 13.875V13.5H9.11279C9.95654 13.5938 10.6128 13.875 10.8003 14.8125L12.1128 21.4688L12.4878 23.4375L16.2378 13.5H20.1753L14.269 28.125ZM23.0815 28.125H19.3315L21.6753 13.5H25.519L23.0815 28.125ZM36.2065 23.3438C36.2065 26.3438 33.6753 28.3125 29.644 28.3125C27.9565 28.3125 26.3628 27.9375 25.519 27.5625L25.9878 24.2812L26.4565 24.4688C27.769 25.0312 28.519 25.3125 30.019 25.3125C31.144 25.3125 32.269 24.8438 32.269 23.8125C32.269 23.25 31.8003 22.7812 30.3003 22.0312C28.894 21.375 27.019 20.1562 27.019 18.0938C27.019 15.2812 29.644 13.3125 33.394 13.3125C34.894 13.3125 36.019 13.5938 36.769 13.875L36.3003 17.0625L35.9253 16.875C35.269 16.5938 34.3315 16.3125 33.1128 16.3125C31.6128 16.3125 30.9565 16.9688 30.9565 17.625C30.9565 18.2812 31.8003 18.75 33.1128 19.4062C35.269 20.4375 36.3003 21.6562 36.2065 23.3438ZM49.519 28.125H45.9565C45.9565 28.125 45.6753 26.4375 45.5815 25.9688H40.7065C40.519 26.3438 39.9565 28.125 39.9565 28.125H35.9253L41.5503 14.7188C41.9253 13.7812 42.5815 13.5 43.519 13.5H46.4253L49.519 28.125Z" fill="#7A583E"/>
</svg>
