<svg width="54" height="43" viewBox="0 0 54 43" fill="none" xmlns="http://www.w3.org/2000/svg">
<path d="M45.1875 35.5312C45.1875 34.875 44.8125 34.4062 44.1562 34.4062C43.5 34.4062 43.125 34.875 43.125 35.5312C43.125 36.0938 43.5 36.5625 44.1562 36.5625C44.8125 36.5625 45.1875 36.1875 45.1875 35.5312ZM16.125 34.4062C15.4688 34.4062 15 34.875 15 35.5312C15 36.0938 15.4688 36.5625 16.125 36.5625C16.6875 36.5625 17.1562 36.1875 17.1562 35.5312C17.0625 34.875 16.6875 34.4062 16.125 34.4062ZM27.0938 34.4062C26.625 34.4062 26.25 34.6875 26.25 35.1562H28.0312C27.9375 34.6875 27.5625 34.4062 27.0938 34.4062ZM37.2188 34.4062C36.5625 34.4062 36.1875 34.875 36.1875 35.5312C36.1875 36.0938 36.5625 36.5625 37.2188 36.5625C37.875 36.5625 38.25 36.1875 38.25 35.5312C38.25 34.875 37.875 34.4062 37.2188 34.4062ZM47.1562 36.8438C47.1562 36.8438 47.1562 36.75 47.0625 36.75C47.0625 36.75 47.0625 36.75 46.9688 36.75C46.9688 36.6562 46.9688 36.6562 46.875 36.6562C46.875 36.6562 46.875 36.6562 46.7812 36.75C46.7812 36.75 46.7812 36.75 46.6875 36.75V36.8438C46.5938 36.8438 46.5938 36.9375 46.5938 36.9375C46.5938 37.0312 46.5938 37.0312 46.6875 37.0312C46.6875 37.125 46.6875 37.125 46.6875 37.125C46.7812 37.125 46.7812 37.2188 46.7812 37.2188C46.875 37.2188 46.875 37.2188 46.875 37.2188C46.9688 37.2188 46.9688 37.2188 46.9688 37.2188C47.0625 37.2188 47.0625 37.125 47.0625 37.125C47.1562 37.125 47.1562 37.125 47.1562 37.0312C47.1562 37.0312 47.1562 37.0312 47.1562 36.9375V36.8438ZM46.9688 37.0312L47.0625 37.125H46.9688L46.875 36.9375V37.125H46.7812V36.75H46.875C46.9688 36.75 46.9688 36.8438 46.9688 36.8438C47.0625 36.8438 47.0625 36.8438 47.0625 36.8438C47.0625 36.9375 47.0625 36.9375 46.9688 36.9375V37.0312ZM54 4.59375C54 2.15625 51.9375 0.09375 49.5 0.09375H4.5C1.96875 0.09375 0 2.15625 0 4.59375V37.5938C0 40.125 1.96875 42.0938 4.5 42.0938H49.5C51.9375 42.0938 54 40.125 54 37.5938V4.59375ZM6 17.7188C6 10.5938 11.8125 4.78125 18.9375 4.78125C21.4688 4.78125 24 5.53125 26.1562 6.9375C19.3125 12.4688 19.3125 22.9688 26.1562 28.5C24 29.9062 21.4688 30.75 18.9375 30.75C11.8125 30.75 6 24.9375 6 17.7188ZM27 27.9375C20.3438 22.7812 20.3438 12.75 27 7.5C33.5625 12.75 33.5625 22.7812 27 27.9375ZM13.5938 35.0625V37.2188H12.8438C12.8438 35.3438 13.0312 34.4062 12.0938 34.4062C11.0625 34.4062 11.25 35.5312 11.25 37.2188H10.5C10.5 35.3438 10.6875 34.4062 9.75 34.4062C8.625 34.4062 8.90625 35.4375 8.90625 37.2188H8.15625V33.75H8.90625V34.2188C9.1875 33.8438 9.5625 33.6562 9.9375 33.6562C10.4062 33.6562 10.7812 33.9375 11.0625 34.3125C11.3438 33.8438 11.8125 33.6562 12.2812 33.6562C13.125 33.75 13.5938 34.2188 13.5938 35.0625ZM17.8125 33.75V37.2188H17.0625V36.8438C16.875 37.125 16.5 37.3125 16.0312 37.3125C15 37.3125 14.25 36.5625 14.25 35.5312C14.25 34.5 15 33.6562 16.0312 33.6562C16.5 33.6562 16.875 33.9375 17.0625 34.2188V33.75H17.8125ZM21.6562 36.1875C21.6562 37.5 19.5938 37.5938 18.5625 36.9375L18.9375 36.2812C19.5938 36.75 20.8125 36.8438 20.8125 36.1875C20.8125 35.625 18.6562 36.1875 18.6562 34.7812C18.6562 33.4688 20.625 33.4688 21.5625 34.0312L21.1875 34.6875C20.625 34.3125 19.5 34.2188 19.5 34.7812C19.5 35.4375 21.6562 34.7812 21.6562 36.1875ZM24.9375 37.0312C24.4688 37.4062 22.7812 37.6875 22.7812 36V34.5H22.125V33.75H22.7812V32.7188H23.625V33.75H24.8438V34.5H23.625V36C23.625 36.8438 24.375 36.6562 24.75 36.4688L24.9375 37.0312ZM26.1562 35.8125C26.4375 36.8438 27.4688 36.8438 28.2188 36.2812L28.5938 36.8438C27.5625 37.7812 25.4062 37.4062 25.4062 35.5312C25.4062 34.4062 26.1562 33.6562 27.0938 33.6562C28.0312 33.6562 28.7812 34.3125 28.7812 35.8125H26.1562ZM31.6875 33.75L31.5 34.5C31.2188 34.3125 30.2812 34.2188 30.2812 35.25V37.2188H29.5312V33.75H30.2812V34.2188C30.6562 33.6562 31.3125 33.5625 31.6875 33.75ZM32.7188 35.5312C32.7188 36.5625 33.8438 36.9375 34.6875 36.2812L35.0625 36.9375C34.0312 37.7812 31.9688 37.4062 31.9688 35.5312C31.9688 33.75 33.9375 33.2812 35.0625 34.125L34.6875 34.6875C33.8438 34.125 32.7188 34.4062 32.7188 35.5312ZM39 33.75V37.2188H38.25V36.8438C37.5 37.7812 35.4375 37.3125 35.4375 35.5312C35.4375 33.75 37.4062 33.1875 38.25 34.2188V33.75H39ZM42.0938 33.75L41.9062 34.5C41.5312 34.3125 40.6875 34.2188 40.6875 35.25V37.2188H39.9375V33.75H40.6875V34.2188C41.0625 33.5625 41.9062 33.6562 42.0938 33.75ZM45.9375 32.4375V37.2188H45.1875V36.8438C44.4375 37.7812 42.375 37.3125 42.375 35.5312C42.375 33.75 44.4375 33.1875 45.1875 34.2188V32.4375H45.9375ZM46.5938 25.3125H46.4062H46.875H46.6875V25.7812H46.5938V25.3125ZM47.25 36.9375C47.25 37.0312 47.25 37.0312 47.25 37.125C47.1562 37.125 47.1562 37.125 47.1562 37.2188C47.1562 37.2188 47.0625 37.2188 47.0625 37.3125C46.9688 37.3125 46.9688 37.3125 46.875 37.3125H46.7812C46.6875 37.2188 46.6875 37.2188 46.6875 37.2188C46.5938 37.125 46.5938 37.125 46.5938 37.125C46.5938 37.0312 46.5938 37.0312 46.5938 36.9375V36.8438C46.5938 36.75 46.5938 36.75 46.6875 36.75C46.6875 36.6562 46.6875 36.6562 46.7812 36.6562L46.875 36.5625C46.9688 36.5625 46.9688 36.6562 47.0625 36.6562C47.0625 36.6562 47.1562 36.6562 47.1562 36.75C47.1562 36.75 47.1562 36.75 47.25 36.8438V36.9375ZM47.5312 25.3125V25.7812H47.4375V25.4062L47.3438 25.6875H47.25L47.0625 25.4062V25.7812H46.9688V25.3125H47.1562L47.25 25.5938L47.4375 25.3125H47.5312ZM48 17.7188C48 24.9375 42.0938 30.75 34.9688 30.6562C32.4375 30.6562 29.9062 29.9062 27.8438 28.5C34.6875 22.9688 34.5938 12.4688 27.8438 6.9375C29.9062 5.53125 32.4375 4.78125 34.9688 4.78125C42.0938 4.78125 48 10.5938 48 17.7188Z" fill="#7A583E"/>
</svg>
