<svg width="61" height="36" viewBox="0 0 61 36" fill="none" xmlns="http://www.w3.org/2000/svg">
<path d="M30.0376 7.5C24.9751 7.5 21.0376 12.2812 21.0376 18C21.0376 23.8125 24.9751 28.5 30.0376 28.5C35.0063 28.5 39.0376 23.8125 39.0376 18C39.0376 12.2812 35.0063 7.5 30.0376 7.5ZM33.7876 23.25C33.7876 23.7188 33.4126 24 33.0376 24H27.0376C26.5688 24 26.2876 23.7188 26.2876 23.25V21.75C26.2876 21.375 26.5688 21 27.0376 21H28.5376V15.8438H28.4438C28.3501 15.9375 28.1626 16.0312 28.0688 16.0312C27.7876 16.0312 27.5063 15.8438 27.4126 15.6562L26.5688 14.4375C26.4751 14.3438 26.4751 14.1562 26.4751 13.9688C26.4751 13.7812 26.5688 13.5 26.7563 13.4062L28.2563 12.4688C28.5376 12.1875 29.0063 12 29.4751 12H30.7876C31.1626 12 31.5376 12.375 31.5376 12.75V21H33.0376C33.4126 21 33.7876 21.375 33.7876 21.75V23.25ZM57.0376 0H3.0376C1.3501 0 0.0375977 1.40625 0.0375977 3V33C0.0375977 34.6875 1.3501 36 3.0376 36H57.0376C58.6313 36 60.0376 34.6875 60.0376 33V3C60.0376 1.40625 58.6313 0 57.0376 0ZM55.5376 25.5C52.1626 25.5 49.5376 28.2188 49.5376 31.5H10.5376C10.5376 28.2188 7.81885 25.5 4.5376 25.5V10.5C7.81885 10.5 10.5376 7.875 10.5376 4.5H49.5376C49.5376 7.875 52.1626 10.5 55.5376 10.5V25.5Z" fill="#7A583E"/>
</svg>
