<svg width="95" height="85" viewBox="0 0 95 85" fill="none" xmlns="http://www.w3.org/2000/svg">
<path d="M43.6565 8.99605C44.8323 8.41181 46.155 8.10522 47.5 8.10522C48.845 8.10522 50.1677 8.41181 51.3435 8.99605L81.0904 23.779C81.7071 24.0858 82.221 24.5346 82.5787 25.0788C82.9364 25.6231 83.125 26.243 83.125 26.8744V56.04C83.1247 57.3031 82.7468 58.5432 82.0307 59.6317C81.3145 60.7202 80.2861 61.6176 79.0519 62.2308L51.3435 76.0079C50.1677 76.5922 48.845 76.8988 47.5 76.8988C46.155 76.8988 44.8323 76.5922 43.6565 76.0079L15.9481 62.2308C14.7145 61.6179 13.6865 60.7211 12.9703 59.6332C12.2542 58.5454 11.876 57.3061 11.875 56.0436V26.8744C11.875 26.243 12.0636 25.6231 12.4213 25.0788C12.779 24.5346 13.2929 24.0858 13.9096 23.779L43.6604 8.99605H43.6565Z" stroke="#7A583E" stroke-width="2" stroke-linecap="round" stroke-linejoin="round"/>
<path d="M47.5 42.4998V77.9165M11.875 24.7915L47.5 42.4998L11.875 24.7915ZM47.5 42.4998L83.125 24.7915L47.5 42.4998Z" stroke="#7A583E" stroke-width="2" stroke-linejoin="round"/>
<path d="M29.6875 33.6458L65.3125 15.9375" stroke="#7A583E" stroke-width="2" stroke-linecap="round" stroke-linejoin="round"/>
<path d="M23.75 43.6619L35.625 49.5835" stroke="#7A583E" stroke-width="2" stroke-linecap="round" stroke-linejoin="round"/>
</svg>
